<svg width="123" height="80" fill="none" xmlns="http://www.w3.org/2000/svg"><g clip-path="url(#a)"><path d="M61.197 38.76a11.408 11.408 0 0 1-10.689-15.334l.257-.693-.732-.124a11.388 11.388 0 0 1-9.453-11.227A11.394 11.394 0 0 1 55.442.542c.878.25 1.854.526 2.7.526.235.003.469-.024.697-.078l-2.562 4.442a8.221 8.221 0 1 0 .04 11.871l.352.605c.347.737.754 1.443 1.217 2.113l.501.863a8.233 8.233 0 1 0 8.325 2.611 30.274 30.274 0 0 0-2.447-2.65c-2.444-2.46-5.218-5.246-5.218-9.457A11.382 11.382 0 0 1 70.264 0h.365a11.385 11.385 0 0 1 7.197 20.044l-.078.069c-.095.08-.19.158-.288.233l-.034.026-.334.248-.213.155c-.41.288-1.031.76-1.31 1.4l-1.782-4.319a8.267 8.267 0 0 0 5.757-7.847 8.22 8.22 0 1 0-16.063 2.47c.464 1.929 2.099 3.572 3.832 5.314 2.47 2.478 5.265 5.288 5.265 9.568a11.376 11.376 0 0 1-11.385 11.385l.003.015Z" fill="url(#b)"/><path d="M0 64.784h10.752v-1.607H1.62v-5.19h7.772v-1.566H1.621v-5.458h9.13V49.36H0v15.424ZM24.987 61.997 18.63 49.36H17.16v15.424h1.623V53.059l5.648 11.24h1.091l5.665-11.28v11.765h1.624V49.36h-1.468l-6.356 12.637ZM47.607 49.072a8.02 8.02 0 1 0 5.67 2.349 7.773 7.773 0 0 0-5.67-2.349Zm0 14.373a6.386 6.386 0 1 1 4.496-1.868 6.217 6.217 0 0 1-4.496 1.868ZM59.749 50.963h5.377v13.82h1.627v-13.82h5.397V49.36H59.75v1.603ZM79.868 49.36H78.24v15.424h1.627V49.36ZM94.64 49.072a8.02 8.02 0 1 0 5.669 2.349 7.794 7.794 0 0 0-5.668-2.349Zm0 14.373a6.403 6.403 0 0 1-6.395-6.376 6.138 6.138 0 0 1 1.882-4.505 6.377 6.377 0 1 1 4.514 10.881ZM120.779 49.36v12.533l-9.972-12.533h-1.379v15.424h1.621v-12.52l9.971 12.52h1.379V49.36h-1.62ZM33.642 76.86a1.753 1.753 0 0 0-.42-.395 4.523 4.523 0 0 0-.458-.288 4.836 4.836 0 0 0-.55-.242 9.003 9.003 0 0 0-.526-.187l-.533-.167-.575-.195a10.529 10.529 0 0 1-.507-.185 2.301 2.301 0 0 1-.435-.218 2.99 2.99 0 0 1-.322-.262.727.727 0 0 1-.202-.288 1.035 1.035 0 0 1-.063-.372 1.019 1.019 0 0 1 .475-.88c.431-.265.934-.39 1.44-.357a2.743 2.743 0 0 1 1.542.38 1.067 1.067 0 0 1 .541.912v.193h.841v-.23a1.78 1.78 0 0 0-.843-1.5 3.596 3.596 0 0 0-2.082-.576 3.33 3.33 0 0 0-2.015.559 1.819 1.819 0 0 0-.774 1.525c-.004.272.06.54.187.78.11.206.253.393.423.553.203.174.43.317.674.426.229.114.464.215.705.302.187.064.438.144.757.24.32.094.553.172.728.236.202.067.399.145.59.236.175.074.34.171.49.287.118.096.216.213.288.346a.9.9 0 0 1 .11.449 1.005 1.005 0 0 1-.493.864 2.628 2.628 0 0 1-1.485.356 2.988 2.988 0 0 1-1.618-.382 1.048 1.048 0 0 1-.576-.91v-.147h-.855v.225a1.755 1.755 0 0 0 .864 1.502c.645.4 1.394.6 2.153.576a3.535 3.535 0 0 0 2.067-.556 1.793 1.793 0 0 0 .8-1.522 1.67 1.67 0 0 0-.11-.596 2.108 2.108 0 0 0-.233-.493ZM38.05 72.982h2.674v6.874h.85v-6.874h2.685v-.84h-6.21v.84ZM54.466 76.885a2.229 2.229 0 0 1-.624 1.647 2.838 2.838 0 0 1-3.561 0 2.226 2.226 0 0 1-.628-1.647v-4.744h-.863v4.762a3.047 3.047 0 0 0 .863 2.225c.576.576 1.38.863 2.398.863 1.02 0 1.825-.287 2.395-.863a3.048 3.048 0 0 0 .864-2.225V72.14h-.85l.006 4.744ZM63.655 72.141h-3.046v7.715h3.046c1.131 0 2.015-.368 2.657-1.094a4.502 4.502 0 0 0 0-5.524c-.633-.728-1.526-1.097-2.657-1.097Zm-2.196.84h2.158a2.592 2.592 0 0 1 2.039.839 3.57 3.57 0 0 1 0 4.358 2.564 2.564 0 0 1-2.039.835H61.46v-6.031ZM73.1 72.141h-.849v7.715h.85v-7.715ZM82.041 72a4.016 4.016 0 1 0 2.835 1.177A3.866 3.866 0 0 0 82.041 72Zm0 7.162a3.166 3.166 0 1 1 2.228-.924 3.064 3.064 0 0 1-2.228.924ZM96.232 77.326a2.54 2.54 0 0 0-.244-.47 1.773 1.773 0 0 0-.424-.394 4.865 4.865 0 0 0-.454-.288 4.692 4.692 0 0 0-.553-.242 9.178 9.178 0 0 0-.524-.187l-.532-.167a24.04 24.04 0 0 1-1.097-.38 2.305 2.305 0 0 1-.435-.218 2.727 2.727 0 0 1-.32-.262.709.709 0 0 1-.204-.288 1.036 1.036 0 0 1-.063-.372 1.015 1.015 0 0 1 .478-.88 2.439 2.439 0 0 1 1.425-.357 2.749 2.749 0 0 1 1.543.38 1.067 1.067 0 0 1 .538.912v.193h.84v-.23a1.771 1.771 0 0 0-.843-1.5A3.592 3.592 0 0 0 93.285 72a3.334 3.334 0 0 0-2.016.559 1.825 1.825 0 0 0-.774 1.525c-.002.272.06.54.184.78.112.209.256.398.426.562.204.172.43.316.674.426.23.113.465.214.705.302.187.064.44.144.757.24.317.094.553.172.729.235.203.068.402.148.596.24.175.074.34.17.492.287.116.096.214.214.288.345a.934.934 0 0 1 .11.45 1.011 1.011 0 0 1-.493.863c-.45.264-.968.388-1.488.357a2.989 2.989 0 0 1-1.618-.383 1.05 1.05 0 0 1-.576-.91v-.155h-.838v.225a1.75 1.75 0 0 0 .864 1.502c.645.4 1.394.6 2.153.576a3.51 3.51 0 0 0 2.064-.556 1.785 1.785 0 0 0 .803-1.522 1.667 1.667 0 0 0-.095-.622Z" fill="#fff"/></g><defs><linearGradient id="b" x1="61.2" y1="38.761" x2="61.2" y2="0" gradientUnits="userSpaceOnUse"><stop stop-color="#B09870"/><stop offset="1" stop-color="#CDBA91"/></linearGradient><clipPath id="a"><path fill="#fff" d="M0 0h122.399v80H0z"/></clipPath></defs></svg>
